<svg xmlns="http://www.w3.org/2000/svg" xml:space="preserve" style="fill-rule:evenodd;clip-rule:evenodd;stroke-miterlimit:10" viewBox="0 0 3507 2480" height="122" width="173"><path d="M0 17.549C-16.341 38.43-45.941 14.402-27.193-3.24-8.445-20.881 17.498-2.023 0 17.549" style="fill:#fff;fill-rule:nonzero" transform="translate(1410.73 1374.18) scale(4.16667)"/><path d="M0-37.673h21.435v4.02H4.706v12.749h14.176v4.02H4.706V0H0v-37.673Z" style="fill:#fff;fill-rule:nonzero;stroke:#fff;stroke-width:2px" transform="translate(1565.135 983.33) scale(4.16667)"/><path d="M0-1.953h6.237c2.911 0 5.142-.604 6.692-1.809 1.55-1.206 2.326-3.034 2.326-5.484 0-2.489-.776-4.23-2.326-5.227-1.55-.994-3.781-1.492-6.692-1.492H0v14.012ZM15.708 17.86 6.748 1.953H0V17.86h-4.706v-37.673H6.919c1.889 0 3.638.182 5.245.545 1.607.364 2.986.968 4.14 1.81 1.151.841 2.049 1.932 2.692 3.272.644 1.341.966 2.986.966 4.94 0 2.949-.758 5.303-2.27 7.064C16.18-.421 14.158.785 11.625 1.435l9.413 16.425h-5.33Z" style="fill:#fff;fill-rule:nonzero;stroke:#fff;stroke-width:2px" transform="translate(1701.46 908.913) scale(4.16667)"/><path d="m0 7.005-1.758-5.743a217.064 217.064 0 0 1-1.928-6.288A520.648 520.648 0 0 1-5.5-11.43h-.228a239.605 239.605 0 0 1-1.757 6.404 214.022 214.022 0 0 1-1.929 6.288l-1.756 5.743H0Zm1.19 3.849h-13.551l-3.573 11.485h-4.82l12.588-37.673h5.331L9.754 22.339H4.707L1.19 10.854Z" style="fill:#fff;fill-rule:nonzero;stroke:#fff;stroke-width:2px" transform="translate(1882.685 890.25) scale(4.16667)"/><path d="M0-37.673h4.876l13.438 23.661 4.027 7.81h.227c-.114-1.914-.236-3.895-.368-5.945a92.74 92.74 0 0 1-.2-6.058v-19.468h4.48V0h-4.876L8.107-23.718l-4.025-7.753h-.228c.151 1.915.294 3.858.426 5.829a88.3 88.3 0 0 1 .199 5.944V0H0v-37.673Z" style="fill:#fff;fill-rule:nonzero;stroke:#fff;stroke-width:2px" transform="translate(1945.302 983.33) scale(4.16667)"/><path d="M0 .001c0-3.023.416-5.743 1.248-8.155.831-2.412 1.984-4.46 3.46-6.145a15.003 15.003 0 0 1 5.244-3.876c2.023-.899 4.225-1.35 6.607-1.35 2.267 0 4.252.469 5.954 1.407 1.702.939 3.099 2.019 4.196 3.244l-2.665 3.044c-.983-1.071-2.07-1.923-3.262-2.555-1.19-.632-2.578-.948-4.166-.948-1.777 0-3.385.354-4.82 1.063-1.438.709-2.666 1.722-3.688 3.044-1.019 1.32-1.813 2.92-2.38 4.794-.568 1.877-.852 3.983-.852 6.318 0 2.375.275 4.509.822 6.404.548 1.895 1.314 3.513 2.298 4.853.982 1.34 2.183 2.374 3.601 3.1 1.418.728 3.013 1.091 4.791 1.091 1.816 0 3.393-.363 4.736-1.091 1.341-.726 2.616-1.76 3.828-3.1l2.664 2.927c-1.473 1.724-3.137 3.064-4.989 4.02-1.854.958-3.97 1.436-6.351 1.436-2.345 0-4.509-.439-6.494-1.32a14.703 14.703 0 0 1-5.16-3.819c-1.455-1.666-2.589-3.714-3.402-6.145C.406 5.811 0 3.064 0 .001" style="fill:#fff;fill-rule:nonzero" transform="translate(2089.185 904.842) scale(4.16667)"/><path d="M0 .001c0-3.023.416-5.743 1.248-8.155.831-2.412 1.984-4.46 3.46-6.145a15.003 15.003 0 0 1 5.244-3.876c2.023-.899 4.225-1.35 6.607-1.35 2.267 0 4.252.469 5.954 1.407 1.702.939 3.099 2.019 4.196 3.244l-2.665 3.044c-.983-1.071-2.07-1.923-3.262-2.555-1.19-.632-2.578-.948-4.166-.948-1.777 0-3.385.354-4.82 1.063-1.438.709-2.666 1.722-3.688 3.044-1.019 1.32-1.813 2.92-2.38 4.794-.568 1.877-.852 3.983-.852 6.318 0 2.375.275 4.509.822 6.404.548 1.895 1.314 3.513 2.298 4.853.982 1.34 2.183 2.374 3.601 3.1 1.418.728 3.013 1.091 4.791 1.091 1.816 0 3.393-.363 4.736-1.091 1.341-.726 2.616-1.76 3.828-3.1l2.664 2.927c-1.473 1.724-3.137 3.064-4.989 4.02-1.854.958-3.97 1.436-6.351 1.436-2.345 0-4.509-.439-6.494-1.32a14.703 14.703 0 0 1-5.16-3.819c-1.455-1.666-2.589-3.714-3.402-6.145C.406 5.811 0 3.064 0 .001Z" style="fill:none;fill-rule:nonzero;stroke:#fff;stroke-width:2px" transform="translate(2089.185 904.842) scale(4.16667)"/><path d="M0-37.673h21.436v4.02H4.706v11.831h14.119v4.077H4.706v13.668h17.295V0H0v-37.673Z" style="fill:#fff;fill-rule:nonzero;stroke:#fff;stroke-width:2px" transform="translate(2233.081 983.33) scale(4.16667)"/><path d="M0-38.535h2.609v23.029c0 2.527.273 4.623.821 6.289.548 1.664 1.277 3.006 2.184 4.02.907 1.015 1.957 1.732 3.147 2.153 1.191.422 2.447.632 3.771.632 1.361 0 2.656-.21 3.885-.632 1.228-.421 2.304-1.138 3.232-2.153.926-1.014 1.672-2.356 2.24-4.02.567-1.666.851-3.762.851-6.289v-23.029h2.437v23.316c0 2.948-.359 5.399-1.077 7.351-.719 1.952-1.663 3.513-2.835 4.68-1.173 1.169-2.515 1.991-4.026 2.47A15.496 15.496 0 0 1 12.532 0c-1.588 0-3.137-.239-4.65-.718-1.513-.479-2.854-1.301-4.027-2.47-1.171-1.167-2.106-2.728-2.807-4.68C.349-9.82 0-12.271 0-15.219v-23.316Z" style="fill:#fff;fill-rule:nonzero;stroke:#fff;stroke-width:2px" transform="translate(1566.314 1226.776) scale(4.16667)"/><path d="M0-37.846h2.721l15.765 26.704 4.197 7.524h.225l-.225-5.513a131.744 131.744 0 0 1-.115-5.513v-23.202h2.496V0h-2.721L6.577-26.704l-4.196-7.524h-.227c.076 1.838.151 3.628.227 5.369.076 1.743.115 3.532.115 5.37V0H0v-37.846Z" style="fill:#fff;fill-rule:nonzero;stroke:#fff;stroke-width:2px" transform="translate(1716.58 1223.905) scale(4.16667)"/><path d="M448.044 301.543h2.607v37.846h-2.607z" style="fill:#fff;stroke:#fff;stroke-width:2px" transform="translate(0 -190.217) scale(4.16667)"/><path d="M0-37.846h2.778l6.917 22.109c.719 2.298 1.37 4.413 1.956 6.348a291.026 291.026 0 0 0 2.014 6.346h.228c.377-1.15.726-2.241 1.048-3.275.322-1.033.633-2.057.937-3.071.301-1.015.613-2.04.934-3.073.322-1.034.654-2.125.994-3.275l6.918-22.109h2.665L15.14 0h-2.779L0-37.846Z" style="fill:#fff;fill-rule:nonzero;stroke:#fff;stroke-width:2px" transform="translate(1901.585 1223.905) scale(4.16667)"/><path d="M0-37.846h20.471v2.297H2.608v14.299h14.97v2.298H2.608v16.654h18.43V0H0v-37.846Z" style="fill:#fff;fill-rule:nonzero;stroke:#fff;stroke-width:2px" transform="translate(2039.568 1223.905) scale(4.16667)"/><path d="M0-1.322c3.326 0 5.869-.678 7.627-2.038 1.757-1.359 2.637-3.436 2.637-6.232 0-2.833-.89-4.833-2.666-6.001C5.821-16.76 3.289-17.345 0-17.345h-7.43v16.023H0Zm10.661 19.584L.509.862H-7.43v17.4h-2.607v-37.846H.68c1.852 0 3.534.182 5.047.545 1.511.364 2.797.948 3.856 1.753 1.057.802 1.879 1.837 2.466 3.1.586 1.263.879 2.795.879 4.594 0 3.026-.86 5.399-2.58 7.122C8.628-.747 6.294.306 3.345.689l10.32 17.573h-3.004Z" style="fill:#fff;fill-rule:nonzero;stroke:#fff;stroke-width:2px" transform="translate(2203.073 1147.81) scale(4.16667)"/><path d="M0 24.18a15.164 15.164 0 0 0 4.877 3.732c1.889.92 3.913 1.379 6.067 1.379 2.873 0 5.141-.698 6.805-2.096 1.663-1.397 2.495-3.225 2.495-5.485 0-1.187-.179-2.182-.538-2.986a6.795 6.795 0 0 0-1.446-2.096 9.425 9.425 0 0 0-2.127-1.551 48.807 48.807 0 0 0-2.58-1.293L7.882 11.2a24.273 24.273 0 0 1-2.579-1.263A10.842 10.842 0 0 1 2.864 8.07a9.821 9.821 0 0 1-1.843-2.641C.529 4.414.284 3.199.284 1.783c0-1.379.274-2.633.821-3.762a8.963 8.963 0 0 1 2.27-2.929c.963-.823 2.116-1.465 3.459-1.924 1.341-.46 2.787-.69 4.337-.69 2.267 0 4.281.451 6.04 1.35 1.758.9 3.204 1.963 4.338 3.187l-1.474 1.78a12.677 12.677 0 0 0-3.857-2.842c-1.474-.709-3.156-1.063-5.047-1.063-2.495 0-4.498.613-6.011 1.838C3.647-2.046 2.893-.401 2.893 1.667c0 1.11.208 2.048.623 2.814a6.996 6.996 0 0 0 1.588 1.982 11.352 11.352 0 0 0 2.098 1.436 36.91 36.91 0 0 0 2.154 1.062l5.67 2.527c1.059.459 2.062.976 3.007 1.55a11.805 11.805 0 0 1 2.495 2.01 8.944 8.944 0 0 1 1.729 2.728c.434 1.053.653 2.307.653 3.761 0 1.456-.284 2.807-.849 4.049a9.365 9.365 0 0 1-2.412 3.217c-1.04.899-2.296 1.607-3.771 2.125-1.474.516-3.119.774-4.934.774-2.721 0-5.14-.526-7.257-1.578-2.118-1.054-3.913-2.422-5.388-4.107L0 24.18Z" style="fill:#fff;fill-rule:nonzero;stroke:#fff;stroke-width:2px" transform="translate(2285.298 1094.68) scale(4.16667)"/><path d="M579.206 301.543h2.607v37.846h-2.607z" style="fill:#fff;stroke:#fff;stroke-width:2px" transform="translate(0 -190.217) scale(4.16667)"/><path d="M0-33.251h-11.908v-2.297h26.424v2.297H2.607V2.297H0v-35.548Z" style="fill:#fff;fill-rule:nonzero;stroke:#fff;stroke-width:2px" transform="translate(2503.615 1214.33) scale(4.16667)"/><path d="M0-34.63h-2.268l5.217-6.088h3.29L0-34.63Zm-10.661 2.872H9.812v2.297H-8.052v14.299H6.919v2.298H-8.052V3.79h18.429v2.298h-21.038v-37.846Z" style="fill:#fff;fill-rule:nonzero;stroke:#fff;stroke-width:2px" transform="translate(2638.29 1198.538) scale(4.16667)"/><path d="M0-37.847h2.722l15.763 26.705 4.197 7.524h.227l-.227-5.513a131.787 131.787 0 0 1-.113-5.514v-23.202h2.494V0h-2.721L6.577-26.705l-4.195-7.524h-.229c.076 1.838.151 3.628.229 5.369.075 1.743.113 3.533.113 5.37V0H0v-37.847Z" style="fill:#fff;fill-rule:nonzero;stroke:#fff;stroke-width:2px" transform="translate(1566.789 1472.122) scale(4.16667)"/><path d="M0-38.535h2.608v23.029c0 2.528.274 4.624.822 6.289.547 1.664 1.276 3.006 2.184 4.021.907 1.014 1.956 1.731 3.147 2.153 1.191.421 2.447.632 3.771.632 1.361 0 2.656-.211 3.885-.632 1.228-.422 2.304-1.139 3.231-2.153.927-1.015 1.672-2.357 2.241-4.021.567-1.665.851-3.761.851-6.289v-23.029h2.437v23.316c0 2.949-.359 5.4-1.077 7.352-.719 1.952-1.663 3.513-2.835 4.68-1.173 1.169-2.515 1.991-4.027 2.469A15.46 15.46 0 0 1 12.532 0c-1.588 0-3.138-.238-4.65-.718-1.513-.478-2.854-1.3-4.027-2.469-1.171-1.167-2.106-2.728-2.807-4.68C.349-9.819 0-12.27 0-15.219v-23.316Z" style="fill:#fff;fill-rule:nonzero;stroke:#fff;stroke-width:2px" transform="translate(1716.58 1474.989) scale(4.16667)"/><path d="M0-37.847h3.687l7.825 22.226 2.948 8.384h.228l2.834-8.384 7.826-22.226h3.686V0h-2.553v-24.868c0-1.57.038-3.264.115-5.083.075-1.818.15-3.533.226-5.139h-.226l-2.95 8.326L15.65-4.136h-2.324L5.274-26.764 2.325-35.09h-.226c.075 1.606.15 3.321.226 5.139.075 1.819.113 3.513.113 5.083V0H0v-37.847Z" style="fill:#fff;fill-rule:nonzero;stroke:#fff;stroke-width:2px" transform="translate(1866.851 1472.122) scale(4.16667)"/><path d="M0-34.631h-2.268l5.218-6.088h3.29L0-34.631Zm-10.66 2.872H9.813v2.297H-8.052v14.3H6.92v2.298H-8.052V3.79h18.43v2.298H-10.66v-37.847Z" style="fill:#fff;fill-rule:nonzero;stroke:#fff;stroke-width:2px" transform="translate(2078.077 1446.755) scale(4.16667)"/><path d="M0-1.323c3.326 0 5.87-.679 7.627-2.038 1.759-1.359 2.637-3.436 2.637-6.232 0-2.833-.889-4.833-2.665-6.001-1.778-1.167-4.31-1.751-7.599-1.751h-7.429v16.022H0Zm10.661 19.585L.511.861h-7.94v17.401h-2.607v-37.847H.682c1.85 0 3.533.182 5.046.545 1.512.364 2.796.948 3.855 1.752 1.059.804 1.881 1.837 2.467 3.101.587 1.263.88 2.796.88 4.594 0 3.026-.862 5.4-2.581 7.123C8.628-.748 6.295.306 3.346.689l10.32 17.573h-3.005Z" style="fill:#fff;fill-rule:nonzero;stroke:#fff;stroke-width:2px" transform="translate(2197.164 1396.03) scale(4.16667)"/><path d="M549.039 241.971h2.607v37.847h-2.607z" style="fill:#fff;stroke:#fff;stroke-width:2px" transform="translate(0 306.213) scale(4.16667)"/><path d="M0-8.497C0-5.856.304-3.452.908-1.29 1.513.874 2.363 2.711 3.46 4.223c1.096 1.512 2.43 2.69 3.998 3.533 1.567.842 3.298 1.263 5.188 1.263 1.89 0 3.611-.421 5.161-1.263 1.549-.843 2.881-2.021 3.998-3.533 1.114-1.512 1.975-3.349 2.58-5.513.604-2.162.908-4.566.908-7.207 0-2.604-.304-4.959-.908-7.065-.605-2.106-1.466-3.896-2.58-5.37-1.117-1.473-2.449-2.613-3.998-3.417-1.55-.803-3.271-1.206-5.161-1.206-1.89 0-3.621.403-5.188 1.206-1.568.804-2.902 1.944-3.998 3.417-1.097 1.474-1.947 3.264-2.552 5.37C.304-13.456 0-11.101 0-8.497m28.185 27.336c-.493.153-1.145.296-1.958.431-.812.133-1.692.201-2.636.201-3.14 0-5.756-.785-7.854-2.355-2.098-1.571-3.621-3.542-4.565-5.915-2.042-.192-3.913-.794-5.614-1.809-1.702-1.014-3.166-2.373-4.395-4.077C-.064 3.61-1.02 1.591-1.701-.745c-.681-2.335-1.021-4.919-1.021-7.752 0-2.987.379-5.678 1.134-8.07.756-2.393 1.817-4.441 3.176-6.146 1.362-1.703 2.986-3.004 4.877-3.904 1.89-.899 3.95-1.351 6.181-1.351 2.269 0 4.347.452 6.239 1.351 1.888.9 3.515 2.201 4.876 3.904 1.36 1.705 2.419 3.753 3.176 6.146.755 2.392 1.134 5.083 1.134 8.07 0 2.833-.341 5.417-1.022 7.752-.68 2.336-1.634 4.355-2.862 6.06-1.229 1.704-2.705 3.063-4.424 4.077-1.722 1.015-3.62 1.617-5.699 1.809.87 1.913 2.126 3.368 3.771 4.364 1.644.996 3.639 1.494 5.982 1.494.87 0 1.598-.049 2.184-.144a11.988 11.988 0 0 0 1.616-.374l.568 2.298Z" style="fill:#fff;fill-rule:nonzero" transform="translate(2345.777 1428.08) scale(4.16667)"/><path d="M0-8.497C0-5.856.304-3.452.908-1.29 1.513.874 2.363 2.711 3.46 4.223c1.096 1.512 2.43 2.69 3.998 3.533 1.567.842 3.298 1.263 5.188 1.263 1.89 0 3.611-.421 5.161-1.263 1.549-.843 2.881-2.021 3.998-3.533 1.114-1.512 1.975-3.349 2.58-5.513.604-2.162.908-4.566.908-7.207 0-2.604-.304-4.959-.908-7.065-.605-2.106-1.466-3.896-2.58-5.37-1.117-1.473-2.449-2.613-3.998-3.417-1.55-.803-3.271-1.206-5.161-1.206-1.89 0-3.621.403-5.188 1.206-1.568.804-2.902 1.944-3.998 3.417-1.097 1.474-1.947 3.264-2.552 5.37C.304-13.456 0-11.101 0-8.497Zm28.185 27.336c-.493.153-1.145.296-1.958.431-.812.133-1.692.201-2.636.201-3.14 0-5.756-.785-7.854-2.355-2.098-1.571-3.621-3.542-4.565-5.915-2.042-.192-3.913-.794-5.614-1.809-1.702-1.014-3.166-2.373-4.395-4.077C-.064 3.61-1.02 1.591-1.701-.745c-.681-2.335-1.021-4.919-1.021-7.752 0-2.987.379-5.678 1.134-8.07.756-2.393 1.817-4.441 3.176-6.146 1.362-1.703 2.986-3.004 4.877-3.904 1.89-.899 3.95-1.351 6.181-1.351 2.269 0 4.347.452 6.239 1.351 1.888.9 3.515 2.201 4.876 3.904 1.36 1.705 2.419 3.753 3.176 6.146.755 2.392 1.134 5.083 1.134 8.07 0 2.833-.341 5.417-1.022 7.752-.68 2.336-1.634 4.355-2.862 6.06-1.229 1.704-2.705 3.063-4.424 4.077-1.722 1.015-3.62 1.617-5.699 1.809.87 1.913 2.126 3.368 3.771 4.364 1.644.996 3.639 1.494 5.982 1.494.87 0 1.598-.049 2.184-.144a11.988 11.988 0 0 0 1.616-.374l.568 2.298Z" style="fill:none;fill-rule:nonzero;stroke:#fff;stroke-width:2px" transform="translate(2345.777 1428.08) scale(4.16667)"/><path d="M0-38.535h2.61v23.029c0 2.528.273 4.624.822 6.289.547 1.664 1.274 3.006 2.182 4.021.908 1.014 1.956 1.731 3.148 2.153 1.19.421 2.447.632 3.771.632 1.361 0 2.655-.211 3.884-.632 1.228-.422 2.306-1.139 3.233-2.153.926-1.015 1.672-2.357 2.239-4.021.568-1.665.851-3.761.851-6.289v-23.029h2.439v23.316c0 2.949-.361 5.4-1.078 7.352-.719 1.952-1.664 3.513-2.834 4.68-1.173 1.169-2.516 1.991-4.027 2.469-1.512.48-3.082.718-4.707.718-1.587 0-3.138-.238-4.651-.718-1.511-.478-2.854-1.3-4.026-2.469-1.17-1.167-2.107-2.728-2.806-4.68C.351-9.819 0-12.27 0-15.219v-23.316Z" style="fill:#fff;fill-rule:nonzero;stroke:#fff;stroke-width:2px" transform="translate(2497.94 1474.989) scale(4.16667)"/><path d="M0-37.847h20.473v2.297H2.609v14.3H17.58v2.298H2.609v16.654h18.429V0H0v-37.847Z" style="fill:#fff;fill-rule:nonzero;stroke:#fff;stroke-width:2px" transform="translate(2648.206 1472.122) scale(4.16667)"/><path d="M0 39.993c0 .208-.022.403-.05.594-.237 1.644-1.489 2.659-3.771 3.034-.347 0-.74-.132-1.179-.399-.809-.489-1.781-1.45-2.902-2.839a45.026 45.026 0 0 1-2.304-3.146l-6.42-8.199-31.648-40.414v51.515c0 1.807-1.162 2.903-3.484 3.289h-.144c-.234 0-.457-.018-.669-.057-1.193-.212-2.025-1.038-2.513-2.452a7.587 7.587 0 0 1-.301-1.119v-61.384c.289-2.676 1.321-4.014 3.095-4.014h.727c.386 0 .76.075 1.121.227 1.082.453 2.046 1.588 2.893 3.401 1.806 2.031 15.044 18.978 39.713 50.838.258 0 .388.178.388.532l.145.194h.192v-51.903c.419-2.192 1.515-3.289 3.29-3.289h.531c.678 0 1.255.161 1.733.483.745.502 1.241 1.408 1.5 2.695.018.087.041.165.057.257v62.156Zm-70.555-62.399V20.21c0 2.209-.327 4.332-.973 6.371-.017.053-.03.108-.047.162-1.496 4.593-4.639 8.752-9.427 12.477-4.387 2.935-8.837 4.401-13.351 4.401h-1.258c-7.578 0-14.173-3.724-19.784-11.173-2.547-3.998-3.821-8.932-3.821-14.802V-21.68c.29-2.676 1.321-4.015 3.096-4.015h.725c2.192.452 3.289 1.419 3.289 2.902v38.988c0 8.385 2.386 13.995 7.16 16.834 2.999 2.321 6.351 3.483 10.061 3.483 7.126 0 12.495-3.661 16.108-10.981a23.137 23.137 0 0 0 1.111-7.16v-40.632c.086-.509.213-.953.37-1.349.019-.048.033-.106.053-.153.557-1.288 1.513-1.932 2.867-1.932h.532c2.192.419 3.289 1.517 3.289 3.289m-60.444.291c-.485 2.224-1.822 3.337-4.016 3.337h-33.618V5.988h22.009l2.613-.193c1.644 0 2.741 1.226 3.288 3.677 0 .047-.008.091-.01.138-.008.2-.031.395-.07.583a3.226 3.226 0 0 1-.318.893c-.006.011-.01.024-.016.036-.461.827-1.306 1.502-2.535 2.026l-3.677-.194h-21.284v26.073l.05.289.145.823c-.03.123-.068.23-.101.347-.58 2.081-1.704 3.135-3.382 3.135h-.389c-2.32-.419-3.481-1.58-3.481-3.482v-62.593c.354-2.322 1.515-3.483 3.481-3.483v-.194l.92.194h35.989l.726-.194c2.096 0 3.321 1.339 3.676 4.016M.182-120.728c-59.01-28.353-185.365 25.958-205.79 85.565C-260.205 125.545-15.88 189.074 31.644 51.756 52.147 1.461 41.284-101.691.182-120.728" style="fill:#fff;fill-rule:nonzero" transform="translate(1197.984 943.034) scale(4.16667)"/><path d="M0-18.004c-.122-.162-.547-.466-1.278-.913-.729-.445-1.642-.912-2.737-1.399a26.31 26.31 0 0 0-3.589-1.278 14.363 14.363 0 0 0-3.893-.547c-3.568 0-5.354 1.196-5.354 3.589 0 .73.192 1.338.579 1.825.384.487.952.923 1.703 1.308.75.386 1.693.741 2.828 1.063 1.135.327 2.454.691 3.955 1.097 2.068.568 3.933 1.186 5.597 1.855 1.661.67 3.071 1.501 4.227 2.495A10.092 10.092 0 0 1 4.714-5.29c.629 1.419.943 3.123.943 5.109 0 2.434-.455 4.492-1.368 6.175-.912 1.683-2.12 3.042-3.62 4.075-1.501 1.034-3.223 1.785-5.17 2.251a25.782 25.782 0 0 1-6.023.699 35.164 35.164 0 0 1-9.733-1.429 38.698 38.698 0 0 1-4.592-1.672 25.601 25.601 0 0 1-4.107-2.252l4.381-8.699c.16.204.688.589 1.581 1.156.891.569 1.996 1.136 3.316 1.703 1.316.569 2.787 1.075 4.409 1.522 1.623.446 3.265.669 4.928.669 3.528 0 5.293-1.074 5.293-3.225 0-.811-.265-1.48-.792-2.007-.527-.526-1.257-1.004-2.189-1.43-.934-.426-2.038-.82-3.316-1.186-1.278-.364-2.667-.77-4.167-1.217-1.987-.608-3.711-1.266-5.171-1.977-1.46-.708-2.667-1.529-3.619-2.463a8.956 8.956 0 0 1-2.13-3.224c-.466-1.217-.699-2.636-.699-4.259 0-2.271.426-4.277 1.278-6.022a13.004 13.004 0 0 1 3.467-4.41c1.46-1.196 3.153-2.098 5.08-2.706 1.925-.609 3.963-.914 6.113-.914 1.501 0 2.981.143 4.441.425 1.46.285 2.859.651 4.198 1.097 1.337.446 2.585.952 3.741 1.519a51.471 51.471 0 0 1 3.194 1.705L0-18.004Z" style="fill:#fff;fill-rule:nonzero" transform="translate(435.48 1749.556) scale(4.16667)"/><path d="M0-6.022c-.204-2.027-.933-3.63-2.189-4.806-1.258-1.175-2.819-1.764-4.685-1.764-1.907 0-3.478.599-4.714 1.794-1.237 1.197-1.957 2.789-2.16 4.776H0Zm-6.752 19.588c-2.677 0-5.08-.436-7.208-1.308-2.13-.872-3.935-2.058-5.415-3.559a15.236 15.236 0 0 1-3.376-5.2 16.773 16.773 0 0 1-1.156-6.175c0-2.312.385-4.492 1.156-6.539a15.84 15.84 0 0 1 3.346-5.384c1.46-1.541 3.255-2.758 5.384-3.651 2.128-.89 4.552-1.338 7.269-1.338 2.716 0 5.129.448 7.238 1.338 2.11.893 3.895 2.099 5.354 3.62a15.336 15.336 0 0 1 3.316 5.262 17.618 17.618 0 0 1 1.124 6.266c0 .568-.02 1.125-.059 1.672a12.305 12.305 0 0 1-.183 1.429h-23.603c.161 2.152.943 3.784 2.342 4.898 1.399 1.116 2.99 1.673 4.775 1.673 1.419 0 2.787-.344 4.107-1.033 1.316-.69 2.198-1.622 2.646-2.799l8.272 2.311c-1.257 2.515-3.204 4.563-5.84 6.144-2.636 1.582-5.8 2.373-9.489 2.373" style="fill:#fff;fill-rule:nonzero" transform="translate(571.842 1747.785) scale(4.16667)"/><path d="M0 45.016v-21.96h-4.076v-7.36H0v-2.617c0-1.986.263-3.792.79-5.415.527-1.621 1.278-3 2.251-4.135A9.815 9.815 0 0 1 6.569.912C7.948.304 9.468 0 11.131 0c2.596 0 5.374.629 8.335 1.885l-1.764 7.301a12.136 12.136 0 0 0-2.16-.699 9.87 9.87 0 0 0-2.22-.274c-2.393 0-3.589 1.501-3.589 4.501v2.982h7.421v7.36H9.733v21.96H0Z" style="fill:#fff;fill-rule:nonzero" transform="translate(700.855 1614.21) scale(4.16667)"/><path d="M0 .062c0 2.514.669 4.531 2.008 6.053 1.338 1.52 3.042 2.28 5.11 2.28 1.013 0 1.947-.202 2.798-.608a6.707 6.707 0 0 0 2.221-1.704c.628-.73 1.124-1.612 1.49-2.646.365-1.033.548-2.159.548-3.375 0-2.516-.67-4.532-2.008-6.054-1.338-1.52-3.021-2.28-5.049-2.28a6.644 6.644 0 0 0-2.829.607A6.639 6.639 0 0 0 2.038-5.96C1.409-5.231.914-4.348.547-3.315.183-2.281 0-1.155 0 .062m7.118 16.546c-2.718 0-5.141-.446-7.27-1.339-2.128-.891-3.924-2.099-5.383-3.619a15.254 15.254 0 0 1-3.316-5.293A17.813 17.813 0 0 1-9.977.062c0-2.191.375-4.29 1.126-6.297a15.259 15.259 0 0 1 3.316-5.292c1.459-1.52 3.255-2.737 5.383-3.65 2.129-.912 4.552-1.369 7.27-1.369 2.716 0 5.13.457 7.238 1.369 2.109.913 3.894 2.13 5.354 3.65a15.647 15.647 0 0 1 3.345 5.292A17.409 17.409 0 0 1 24.211.062c0 2.189-.375 4.289-1.125 6.295a15.28 15.28 0 0 1-3.315 5.293c-1.459 1.52-3.255 2.728-5.384 3.619-2.128.893-4.553 1.339-7.269 1.339" style="fill:#fff;fill-rule:nonzero" transform="translate(816.934 1735.11) scale(4.16667)"/><path d="M0-14.782c-2.352.04-4.482.426-6.388 1.155-1.906.73-3.284 1.825-4.136 3.285V8.821h-9.733v-31.938h8.943v6.449c1.095-2.15 2.503-3.832 4.228-5.049 1.722-1.216 3.558-1.846 5.504-1.886h.974c.202 0 .404.021.608.061v8.76Z" style="fill:#fff;fill-rule:nonzero" transform="translate(1022.238 1765.022) scale(4.16667)"/><path d="M0 32.546h-9.733V14.601c0-2.109-.386-3.641-1.156-4.594-.77-.952-1.764-1.43-2.981-1.43-.648 0-1.307.143-1.976.427-.67.284-1.288.68-1.855 1.186a9.519 9.519 0 0 0-1.552 1.794 9.743 9.743 0 0 0-1.126 2.252v18.31h-9.733V14.601c0-2.109-.385-3.641-1.156-4.594-.77-.952-1.764-1.43-2.981-1.43-1.298 0-2.564.518-3.801 1.552-1.238 1.034-2.139 2.403-2.708 4.107v18.31h-9.733V.609h8.761v5.353c1.175-1.946 2.768-3.427 4.774-4.439C-34.948.508-32.606 0-29.929 0c1.338 0 2.504.162 3.497.487.994.326 1.855.772 2.586 1.338a7.104 7.104 0 0 1 1.764 1.978c.446.751.77 1.551.974 2.402 1.215-1.986 2.817-3.516 4.805-4.592C-14.316.539-12.044 0-9.49 0c2.028 0 3.659.377 4.898 1.126 1.237.752 2.199 1.725 2.889 2.92A11.323 11.323 0 0 1-.334 7.969c.223 1.421.334 2.8.334 4.137v20.44Z" style="fill:#fff;fill-rule:nonzero" transform="translate(1249.601 1666.168) scale(4.16667)"/><path d="M0-6.022c-.204-2.027-.933-3.63-2.189-4.806-1.257-1.175-2.819-1.764-4.685-1.764-1.907 0-3.478.599-4.714 1.794-1.237 1.197-1.957 2.789-2.16 4.776H0Zm-6.752 19.588c-2.677 0-5.08-.436-7.208-1.308-2.13-.872-3.935-2.058-5.415-3.559a15.236 15.236 0 0 1-3.376-5.2 16.773 16.773 0 0 1-1.156-6.175c0-2.312.385-4.492 1.156-6.539a15.84 15.84 0 0 1 3.346-5.384c1.46-1.541 3.255-2.758 5.384-3.651 2.128-.89 4.552-1.338 7.269-1.338 2.716 0 5.129.448 7.239 1.338 2.109.893 3.894 2.099 5.353 3.62a15.336 15.336 0 0 1 3.316 5.262 17.596 17.596 0 0 1 1.124 6.266c0 .568-.02 1.125-.059 1.672a12.305 12.305 0 0 1-.183 1.429h-23.602c.16 2.152.942 3.784 2.341 4.898 1.399 1.116 2.99 1.673 4.775 1.673 1.419 0 2.787-.344 4.107-1.033 1.317-.69 2.198-1.622 2.646-2.799l8.272 2.311c-1.257 2.515-3.204 4.563-5.84 6.144-2.635 1.582-5.8 2.373-9.489 2.373" style="fill:#fff;fill-rule:nonzero" transform="translate(1367.968 1747.785) scale(4.16667)"/><path d="M0-14.782c-2.352.04-4.482.426-6.388 1.155-1.906.73-3.284 1.825-4.136 3.285V8.821h-9.733v-31.938h8.943v6.449c1.094-2.15 2.503-3.832 4.227-5.049 1.723-1.216 3.558-1.846 5.505-1.886h.974c.202 0 .404.021.608.061v8.76Z" style="fill:#fff;fill-rule:nonzero" transform="translate(1513.71 1765.022) scale(4.16667)"/><path d="M0-6.022c-.204-2.027-.933-3.63-2.19-4.806-1.257-1.175-2.818-1.764-4.684-1.764-1.907 0-3.478.599-4.714 1.794-1.237 1.197-1.957 2.789-2.16 4.776H0Zm-6.752 19.588c-2.677 0-5.08-.436-7.208-1.308-2.13-.872-3.935-2.058-5.415-3.559a15.236 15.236 0 0 1-3.376-5.2 16.773 16.773 0 0 1-1.156-6.175c0-2.312.385-4.492 1.156-6.539a15.84 15.84 0 0 1 3.346-5.384c1.46-1.541 3.255-2.758 5.384-3.651 2.128-.89 4.551-1.338 7.269-1.338 2.716 0 5.129.448 7.238 1.338 2.11.893 3.894 2.099 5.354 3.62a15.35 15.35 0 0 1 3.316 5.262 17.618 17.618 0 0 1 1.124 6.266c0 .568-.021 1.125-.059 1.672a12.305 12.305 0 0 1-.183 1.429h-23.603c.161 2.152.943 3.784 2.341 4.898 1.4 1.116 2.991 1.673 4.776 1.673 1.419 0 2.787-.344 4.107-1.033 1.316-.69 2.198-1.622 2.646-2.799l8.272 2.311c-1.257 2.515-3.204 4.563-5.84 6.144-2.636 1.582-5.8 2.373-9.489 2.373" style="fill:#fff;fill-rule:nonzero" transform="translate(1675.43 1747.785) scale(4.16667)"/><path d="M0 32.546h-9.733V14.601c0-2.109-.396-3.641-1.187-4.594-.79-.952-1.834-1.43-3.133-1.43-.69 0-1.379.143-2.067.427a8.592 8.592 0 0 0-2.009 1.186 9.11 9.11 0 0 0-1.732 1.794 8.536 8.536 0 0 0-1.188 2.252v18.31h-9.732V.609h8.76v5.353c1.175-1.905 2.837-3.376 4.988-4.41C-14.884.518-12.409 0-9.611 0c2.068 0 3.731.377 4.988 1.126 1.257.752 2.229 1.725 2.92 2.92A11.322 11.322 0 0 1-.335 7.969c.224 1.421.335 2.8.335 4.137v20.44Z" style="fill:#fff;fill-rule:nonzero" transform="translate(1865.022 1666.168) scale(4.16667)"/><path d="M0-44.954h9.734v33.032c0 2.432 1.035 3.649 3.102 3.649.486 0 1.023-.07 1.612-.212a5.979 5.979 0 0 0 1.614-.639l1.277 7.3c-1.217.567-2.616 1.014-4.198 1.338C11.559-.162 10.078 0 8.699 0 5.901 0 3.752-.729 2.252-2.189S0-5.758 0-8.516v-36.438Z" style="fill:#fff;fill-rule:nonzero" transform="translate(1950.43 1804.056) scale(4.16667)"/><path d="M488.604 175.324h9.733v31.937h-9.733v-31.937Zm0-12.469h9.733v8.819h-9.733v-8.819Z" style="fill:#fff;fill-rule:nonzero" transform="translate(0 938.184) scale(4.16667)"/><path d="M0 28.59c1.136 0 2.169-.213 3.104-.638a7.402 7.402 0 0 0 2.402-1.734 8.127 8.127 0 0 0 1.581-2.586c.386-.993.579-2.078.579-3.254 0-1.136-.184-2.22-.548-3.255-.366-1.034-.862-1.935-1.49-2.706a6.919 6.919 0 0 0-2.282-1.825 6.312 6.312 0 0 0-2.859-.669c-1.542 0-2.95.527-4.228 1.581-1.278 1.055-2.261 2.372-2.95 3.953v6.693c.648 1.378 1.59 2.463 2.829 3.254 1.236.79 2.524 1.186 3.862 1.186m2.737 8.213c-2.433 0-4.562-.518-6.387-1.552-1.825-1.033-3.265-2.484-4.319-4.349v5.292h-8.456V-8.213h9.734V9.489C-5.638 7.664-4.228 6.235-2.463 5.2c1.764-1.034 3.841-1.551 6.234-1.551 2.028 0 3.895.436 5.598 1.307a13.548 13.548 0 0 1 4.379 3.56c1.217 1.501 2.169 3.275 2.859 5.322.689 2.049 1.034 4.228 1.034 6.54 0 2.312-.374 4.471-1.124 6.48-.751 2.006-1.796 3.751-3.133 5.231a14.35 14.35 0 0 1-4.745 3.467c-1.826.831-3.793 1.247-5.902 1.247" style="fill:#fff;fill-rule:nonzero" transform="translate(2172.718 1650.964) scale(4.16667)"/><path d="M0-6.022c-.203-2.027-.933-3.63-2.189-4.806-1.257-1.175-2.82-1.764-4.685-1.764-1.906 0-3.478.599-4.714 1.794-1.237 1.197-1.957 2.789-2.16 4.776H0Zm-6.752 19.588c-2.678 0-5.08-.436-7.208-1.308-2.131-.872-3.935-2.058-5.415-3.559a15.254 15.254 0 0 1-3.377-5.2 16.793 16.793 0 0 1-1.155-6.175c0-2.312.385-4.492 1.155-6.539a15.845 15.845 0 0 1 3.348-5.384c1.459-1.541 3.254-2.758 5.383-3.651 2.128-.89 4.551-1.338 7.269-1.338 2.717 0 5.129.448 7.238 1.338 2.11.893 3.895 2.099 5.354 3.62a15.333 15.333 0 0 1 3.315 5.262 17.597 17.597 0 0 1 1.125 6.266c0 .568-.02 1.125-.059 1.672a12.305 12.305 0 0 1-.183 1.429h-23.602c.16 2.152.942 3.784 2.34 4.898C-9.823 6.013-8.233 6.57-6.448 6.57c1.419 0 2.788-.344 4.106-1.033 1.318-.69 2.199-1.622 2.647-2.799l8.272 2.311c-1.257 2.515-3.204 4.563-5.84 6.144-2.635 1.582-5.8 2.373-9.489 2.373" style="fill:#fff;fill-rule:nonzero" transform="translate(2358.256 1747.785) scale(4.16667)"/><path d="M0-14.782c-2.352.04-4.481.426-6.388 1.155-1.906.73-3.284 1.825-4.136 3.285V8.821h-9.733v-31.938h8.943v6.449c1.095-2.15 2.503-3.832 4.228-5.049 1.723-1.216 3.558-1.846 5.505-1.886h.973c.202 0 .405.021.608.061v8.76Z" style="fill:#fff;fill-rule:nonzero" transform="translate(2503.998 1765.022) scale(4.16667)"/><path d="M0 38.081c-1.339.568-2.871 1.095-4.594 1.581a19.086 19.086 0 0 1-5.201.731c-1.216 0-2.362-.153-3.436-.458a7.644 7.644 0 0 1-2.83-1.458c-.812-.669-1.45-1.552-1.916-2.647-.466-1.095-.699-2.413-.699-3.954V15.207h-4.076v-7.36h4.076V-2.312h9.734V7.847h6.508v7.36h-6.508v13.322c0 1.057.262 1.817.791 2.282.526.467 1.194.7 2.006.7.731 0 1.48-.122 2.25-.365a13.777 13.777 0 0 0 2.009-.792L0 38.081Z" style="fill:#fff;fill-rule:nonzero" transform="translate(2607.165 1636.01) scale(4.16667)"/><path d="m0-25.793-6.204-1.703 3.164-7.908h8.819L0-25.793ZM4.076-9.977c-.204-2.027-.932-3.629-2.189-4.805-1.257-1.176-2.82-1.765-4.685-1.765-1.907 0-3.477.6-4.714 1.794-1.237 1.197-1.957 2.789-2.16 4.776H4.076ZM-2.676 9.611c-2.678 0-5.08-.435-7.209-1.307-2.13-.872-3.933-2.059-5.414-3.56a15.244 15.244 0 0 1-3.377-5.2 16.789 16.789 0 0 1-1.155-6.175c0-2.311.385-4.491 1.155-6.539a15.858 15.858 0 0 1 3.347-5.384c1.46-1.541 3.255-2.758 5.384-3.65 2.129-.891 4.551-1.339 7.269-1.339 2.717 0 5.129.448 7.238 1.339 2.11.892 3.895 2.098 5.354 3.619a15.337 15.337 0 0 1 3.315 5.263 17.591 17.591 0 0 1 1.125 6.265c0 .569-.02 1.125-.059 1.672a12.324 12.324 0 0 1-.183 1.43H-9.488c.16 2.151.942 3.783 2.341 4.897 1.4 1.117 2.99 1.673 4.775 1.673 1.419 0 2.787-.344 4.106-1.033C3.052.893 3.934-.04 4.381-1.217l8.272 2.312c-1.257 2.514-3.204 4.562-5.84 6.143C4.178 8.82 1.014 9.611-2.676 9.611" style="fill:#fff;fill-rule:nonzero" transform="translate(2694.352 1764.264) scale(4.16667)"/></svg>
